<svg width="34" height="34" viewBox="0 0 34 34" fill="none" xmlns="http://www.w3.org/2000/svg">
<path d="M12.4156 9.51382C12.5595 8.89497 13.4405 8.89497 13.5844 9.51382L14.4005 13.0243C14.7063 14.3396 15.6551 15.4119 16.9234 15.8754L18.4583 16.4365C18.9836 16.6285 18.9836 17.3715 18.4583 17.5635L16.9234 18.1246C15.6551 18.5881 14.7063 19.6604 14.4005 20.9757L13.5844 24.4862C13.4405 25.105 12.5595 25.105 12.4156 24.4862L11.5995 20.9757C11.2937 19.6604 10.3449 18.5881 9.07658 18.1246L7.54173 17.5635C7.01638 17.3715 7.01638 16.6285 7.54173 16.4365L9.07658 15.8754C10.3449 15.4119 11.2937 14.3396 11.5995 13.0243L12.4156 9.51382Z" fill="white"/>
<path d="M20.4109 8.04091C20.5364 7.39304 21.4636 7.39304 21.5891 8.0409L21.7036 8.63229C21.7699 8.97432 22.0094 9.25722 22.3358 9.37902L22.4935 9.43786C23.0138 9.63201 23.0138 10.368 22.4935 10.5621L22.3358 10.621C22.0094 10.7428 21.7699 11.0257 21.7036 11.3677L21.5891 11.9591C21.4636 12.607 20.5364 12.607 20.4109 11.9591L20.2964 11.3677C20.2301 11.0257 19.9906 10.7428 19.6642 10.621L19.5065 10.5621C18.9862 10.368 18.9862 9.63201 19.5065 9.43786L19.6642 9.37902C19.9906 9.25722 20.2301 8.97432 20.2964 8.63229L20.4109 8.04091Z" fill="white"/>
<path d="M21.4153 18.5353C21.5584 17.9151 22.4416 17.9151 22.5847 18.5353L23.093 20.7397C23.2525 21.4313 23.7665 21.9865 24.4437 22.1988L25.1733 22.4275C25.7341 22.6032 25.7341 23.3968 25.1733 23.5725L24.4437 23.8012C23.7665 24.0135 23.2525 24.5687 23.093 25.2603L22.5847 27.4647C22.4416 28.0849 21.5584 28.0849 21.4153 27.4647L20.907 25.2603C20.7475 24.5687 20.2335 24.0135 19.5563 23.8012L18.8267 23.5725C18.2659 23.3968 18.2659 22.6032 18.8267 22.4275L19.5563 22.1988C20.2335 21.9865 20.7475 21.4313 20.907 20.7397L21.4153 18.5353Z" fill="white"/>
</svg>
